<svg width="240" height="54" viewBox="0 0 240 54" fill="none" xmlns="http://www.w3.org/2000/svg">
<path d="M28.17 27.616V5.15607C28.17 4.36038 27.7536 3.63341 27.0943 3.19776C19.9975 -1.49182 11.5541 -0.745967 5.08384 5.23596C1.92569 8.35348 0 12.9783 0 17.6788C0 22.3789 1.80552 26.7981 5.08384 30.1217L5.09243 30.1304L28.4114 53.4352C28.7491 53.773 29.1898 53.9417 29.6301 53.9417C30.0704 53.9417 30.5107 53.773 30.8489 53.4352L54.1678 30.1304L54.1764 30.1217C60.9437 23.2604 60.9437 12.0968 54.1764 5.23596C48.7347 0.149061 42.0962 -1.17262 35.5268 1.44342C35.1995 1.57376 34.9063 1.77815 34.6699 2.04078C33.8185 2.98683 33.8899 4.44881 34.8293 5.30621C35.6279 6.03505 36.3065 6.69804 36.8651 7.29519C39.048 9.62937 42.8689 13.961 40.5406 20.0879C40.5406 20.0879 39.4594 22.6163 38.2794 23.2977C38.0935 23.4051 37.8559 23.3454 37.7367 23.1666C37.67 23.0663 37.6512 22.9422 37.6833 22.8265C37.998 21.693 39.3468 15.4951 31.9538 13.3778V33.1438C31.9538 36.568 28.859 39.3438 25.041 39.3438C21.223 39.3438 18.1281 36.568 18.1281 33.1438C18.1281 29.7196 21.223 26.9442 25.041 26.9442C26.1676 26.9442 27.2301 27.1874 28.17 27.616Z" fill="url(#paint0_linear)"/>
<path fill-rule="evenodd" clip-rule="evenodd" d="M91.6498 36.0942C91.6921 36.073 91.7132 36.02 91.7132 35.9352V27.1266C91.7132 25.473 91.3855 23.9837 90.7299 22.6587C90.0743 21.3337 89.1439 20.2684 87.9385 19.4628C87.1983 18.9752 86.2943 18.6148 85.2264 18.3816C84.1584 18.1484 82.8315 18.0424 81.2454 18.0636H81.1503C79.7122 18.0848 78.5069 18.212 77.5341 18.4452C76.5613 18.6784 75.7154 19.0282 74.9964 19.4946C73.7911 20.279 72.8659 21.339 72.2209 22.6746C71.5759 24.0102 71.2428 25.5048 71.2217 27.1584V35.967C71.2217 36.0306 71.2428 36.0836 71.2851 36.126C71.3697 36.1684 71.4226 36.1896 71.4437 36.1896C71.9301 36.1684 72.4958 36.0942 73.1408 35.967C73.7858 35.8398 74.3515 35.5642 74.8378 35.1402C75.3877 34.6526 75.7313 34.0749 75.8688 33.4071C76.0062 32.7393 76.0749 32.0768 76.0749 31.4196V31.3242H86.86V31.3878C86.86 32.045 86.934 32.7075 87.082 33.3753C87.2301 34.0431 87.579 34.6208 88.1288 35.1084C88.594 35.5324 89.1492 35.808 89.7941 35.9352C90.4391 36.0624 91.0048 36.1366 91.4912 36.1578C91.5758 36.1578 91.6287 36.1366 91.6498 36.0942ZM86.86 27.1266V27.4128H76.0749V27.1584C76.0749 26.2468 76.1807 25.5048 76.3922 24.9324C76.6036 24.36 76.9208 23.8936 77.3438 23.5332C77.7879 23.1728 78.3747 22.8972 79.1043 22.7064C79.8339 22.5156 80.7696 22.4414 81.9116 22.4838C82.8632 22.505 83.6509 22.6163 84.2747 22.8177C84.8986 23.0191 85.4008 23.3 85.7815 23.6604C86.5005 24.36 86.86 25.5154 86.86 27.1266Z" fill="white"/>
<path d="M115.123 18.0636C115.081 18.0212 115.028 18 114.965 18C114.478 18.0424 113.918 18.1272 113.283 18.2544C112.649 18.3816 112.089 18.6572 111.602 19.0812C111.052 19.5688 110.709 20.1465 110.571 20.8143C110.434 21.4821 110.365 22.1446 110.365 22.8018V30.3702L101.959 19.5582V19.5264C101.6 19.0388 101.155 18.6625 100.627 18.3975C100.098 18.1325 99.5271 18 98.9138 18C98.4275 18 97.9569 18.0954 97.5023 18.2862C97.0476 18.477 96.6405 18.742 96.281 19.0812C95.562 19.7808 95.1814 20.6606 95.1391 21.7206C95.1179 21.8902 95.1021 22.0545 95.0915 22.2135C95.0809 22.3725 95.0756 22.558 95.0756 22.77V35.9352C95.0756 35.9988 95.0968 36.0518 95.1391 36.0942C95.2237 36.1366 95.2765 36.1578 95.2977 36.1578C95.7841 36.1366 96.3498 36.0571 96.9947 35.9193C97.6397 35.7815 98.2054 35.5006 98.6918 35.0766C99.2416 34.589 99.5853 34.0113 99.7227 33.3435C99.8602 32.6757 99.9289 32.0132 99.9289 31.356V23.7876L108.335 34.6314C108.694 35.119 109.138 35.4953 109.667 35.7603C110.196 36.0253 110.767 36.1578 111.38 36.1578C112.416 36.1578 113.294 35.7974 114.013 35.0766C114.732 34.3558 115.113 33.4866 115.155 32.469C115.155 32.2994 115.165 32.1298 115.187 31.9602C115.208 31.7906 115.218 31.5998 115.218 31.3878V18.2544C115.218 18.1908 115.187 18.1272 115.123 18.0636Z" fill="white"/>
<path d="M140.278 18.0954C140.193 18.053 140.13 18.0318 140.087 18.0318H123.846C123.17 18.0318 122.503 18.0901 121.848 18.2067C121.192 18.3233 120.632 18.6254 120.167 19.113C119.744 19.537 119.469 20.0299 119.342 20.5917C119.215 21.1535 119.131 21.657 119.088 22.1022C119.088 22.1658 119.109 22.2188 119.152 22.2612C119.194 22.3036 119.247 22.3248 119.31 22.3248L127.05 22.3566V35.9352C127.05 35.9988 127.071 36.0518 127.114 36.0942C127.135 36.1366 127.188 36.1578 127.272 36.1578C127.759 36.1366 128.324 36.0624 128.969 35.9352C129.614 35.808 130.18 35.5324 130.666 35.1084C131.216 34.6208 131.56 34.0431 131.697 33.3753C131.835 32.7075 131.903 32.045 131.903 31.3878V22.3566H135.551C136.207 22.3566 136.868 22.2983 137.534 22.1817C138.2 22.0651 138.776 21.763 139.263 21.2754C139.686 20.8514 139.96 20.3532 140.087 19.7808C140.214 19.2084 140.288 18.7102 140.309 18.2862C140.331 18.2438 140.32 18.1802 140.278 18.0954Z" fill="white"/>
<path d="M163.148 18.1908C163.106 18.106 163.053 18.0848 162.99 18.1272C162.503 18.1484 161.938 18.2226 161.293 18.3498C160.648 18.477 160.092 18.7526 159.627 19.1766C159.077 19.6642 158.729 20.2419 158.58 20.9097C158.432 21.5775 158.358 22.24 158.358 22.8972V25.0596H148.271V22.8972C148.271 22.24 148.203 21.5775 148.065 20.9097C147.928 20.2419 147.584 19.6642 147.034 19.1766C146.802 18.9646 146.542 18.7897 146.257 18.6519C145.971 18.5141 145.675 18.4081 145.369 18.3339C145.062 18.2597 144.766 18.2067 144.481 18.1749C144.195 18.1431 143.926 18.1272 143.672 18.1272C143.608 18.0848 143.555 18.106 143.513 18.1908C143.471 18.212 143.45 18.265 143.45 18.3498V35.9988C143.45 36.0836 143.471 36.1366 143.513 36.1578C143.555 36.2002 143.608 36.2214 143.672 36.2214C144.158 36.2002 144.719 36.126 145.353 35.9988C145.987 35.8716 146.548 35.596 147.034 35.172C147.584 34.6844 147.928 34.1067 148.065 33.4389C148.203 32.7711 148.271 32.1086 148.271 31.4514V29.3208H158.358V31.4514C158.358 32.1086 158.432 32.7711 158.58 33.4389C158.729 34.1067 159.077 34.6844 159.627 35.172C160.114 35.596 160.674 35.8716 161.308 35.9988C161.943 36.126 162.503 36.2002 162.99 36.2214C163.053 36.2214 163.106 36.2002 163.148 36.1578C163.191 36.1154 163.212 36.0624 163.212 35.9988V18.3498C163.212 18.2862 163.191 18.2332 163.148 18.1908Z" fill="white"/>
<path d="M187.002 31.833C186.96 31.7694 186.907 31.7376 186.844 31.7376H178.089C176.228 31.7376 174.874 31.5256 174.028 31.1016C173.225 30.7412 172.686 30.1158 172.411 29.2254H180.722C181.335 29.2254 181.964 29.1671 182.609 29.0505C183.254 28.9339 183.809 28.6318 184.274 28.1442C184.697 27.7202 184.972 27.2273 185.099 26.6655C185.226 26.1037 185.3 25.6108 185.321 25.1868C185.321 25.1232 185.3 25.0702 185.258 25.0278C185.236 24.9854 185.184 24.9642 185.099 24.9642H172.379C172.59 24.2858 172.95 23.7558 173.457 23.3742C174.325 22.6958 175.868 22.3566 178.089 22.3566H182.308C182.963 22.3566 183.624 22.2983 184.29 22.1817C184.956 22.0651 185.533 21.763 186.019 21.2754C186.442 20.8302 186.717 20.3267 186.844 19.7649C186.971 19.2031 187.045 18.6996 187.066 18.2544C187.066 18.1908 187.045 18.1378 187.002 18.0954C186.96 18.053 186.907 18.0318 186.844 18.0318H177.708C176.122 18.0318 174.806 18.1431 173.759 18.3657C172.712 18.5883 171.808 18.9434 171.047 19.431H171.015C169.81 20.2154 168.879 21.2754 168.224 22.611C167.568 23.9466 167.24 25.4094 167.24 26.9994C167.24 28.6742 167.568 30.1794 168.224 31.515C168.879 32.8506 169.81 33.9212 171.015 34.7268C171.755 35.2144 172.664 35.5695 173.743 35.7921C174.821 36.0147 176.143 36.126 177.708 36.126H182.308C182.963 36.126 183.624 36.0677 184.29 35.9511C184.956 35.8345 185.533 35.5324 186.019 35.0448C186.442 34.5996 186.717 34.0908 186.844 33.5184C186.971 32.946 187.045 32.4372 187.066 31.992C187.066 31.9072 187.045 31.8542 187.002 31.833Z" fill="white"/>
<path d="M216.344 21.7206C216.28 20.6818 215.9 19.8126 215.202 19.113C214.441 18.3922 213.552 18.0318 212.537 18.0318C211.924 18.0318 211.358 18.1643 210.84 18.4293C210.322 18.6943 209.883 19.0706 209.524 19.5582H209.492L203.941 26.7132L198.39 19.5582C198.03 19.0706 197.586 18.6943 197.058 18.4293C196.529 18.1643 195.958 18.0318 195.345 18.0318C194.309 18.0318 193.431 18.3922 192.712 19.113C191.993 19.8126 191.612 20.6818 191.57 21.7206C191.549 21.8902 191.533 22.0598 191.522 22.2294C191.512 22.399 191.507 22.5898 191.507 22.8018V35.9352C191.507 35.9988 191.528 36.0518 191.57 36.0942C191.612 36.1366 191.665 36.1578 191.729 36.1578C192.215 36.1366 192.781 36.0624 193.426 35.9352C194.071 35.808 194.636 35.5324 195.123 35.1084C195.673 34.6208 196.016 34.0431 196.154 33.3753C196.291 32.7075 196.36 32.045 196.36 31.3878V23.8194L203.782 33.3912C203.804 33.4548 203.856 33.4866 203.941 33.4866C204.005 33.4866 204.068 33.4548 204.131 33.3912L211.522 23.8194V31.3878C211.522 32.045 211.596 32.7075 211.744 33.3753C211.892 34.0431 212.241 34.6208 212.791 35.1084C213.256 35.5324 213.811 35.808 214.456 35.9352C215.101 36.0624 215.667 36.1366 216.154 36.1578C216.238 36.1578 216.291 36.1366 216.312 36.0942C216.354 36.0518 216.376 35.9988 216.376 35.9352V22.8018C216.376 22.5898 216.37 22.399 216.36 22.2294C216.349 22.0598 216.344 21.8902 216.344 21.7206Z" fill="white"/>
<path d="M225.432 22.6746C225.696 22.399 226.008 22.2612 226.368 22.2612H235.376C235.99 22.2612 236.619 22.2029 237.264 22.0863C237.909 21.9697 238.464 21.6782 238.929 21.2118C239.352 20.7878 239.622 20.3002 239.738 19.749C239.854 19.1978 239.923 18.7102 239.944 18.2862C239.944 18.2014 239.923 18.1484 239.881 18.1272C239.838 18.0636 239.785 18.0318 239.722 18.0318H226.05C225.289 18.0318 224.57 18.1802 223.893 18.477C223.217 18.7738 222.625 19.1766 222.117 19.6854C221.609 20.1942 221.208 20.7878 220.912 21.4662C220.616 22.1446 220.468 22.8654 220.468 23.6286C220.468 24.3918 220.61 25.1126 220.896 25.791C221.181 26.4694 221.578 27.063 222.085 27.5718C222.593 28.0806 223.18 28.4834 223.846 28.7802C224.512 29.077 225.226 29.2254 225.987 29.2254H233.917C234.277 29.2254 234.589 29.3526 234.853 29.607C235.117 29.8614 235.249 30.1688 235.249 30.5292C235.249 30.9108 235.117 31.2341 234.853 31.4991C234.589 31.7641 234.277 31.8966 233.917 31.8966H224.75C224.2 31.8966 223.634 31.9496 223.053 32.0556C222.471 32.1616 221.937 32.4584 221.451 32.946C221.028 33.37 220.758 33.8576 220.642 34.4088C220.526 34.96 220.457 35.4476 220.436 35.8716C220.436 35.914 220.457 35.9776 220.499 36.0624C220.542 36.1048 220.594 36.126 220.658 36.126H234.266C235.027 36.126 235.746 35.9776 236.423 35.6808C237.1 35.384 237.687 34.9812 238.184 34.4724C238.681 33.9636 239.077 33.37 239.373 32.6916C239.669 32.0132 239.817 31.2924 239.817 30.5292C239.817 29.766 239.674 29.0505 239.389 28.3827C239.103 27.7149 238.707 27.1266 238.199 26.6178C237.692 26.109 237.105 25.7062 236.439 25.4094C235.773 25.1126 235.059 24.9642 234.298 24.9642C234.298 24.943 234.277 24.9324 234.234 24.9324L226.368 24.9642C226.008 24.9642 225.696 24.8317 225.432 24.5667C225.167 24.3017 225.035 23.989 225.035 23.6286C225.035 23.2682 225.167 22.9502 225.432 22.6746Z" fill="white"/>
<defs>
<linearGradient id="paint0_linear" x1="0" y1="0.133545" x2="60.5098" y2="4.97647" gradientUnits="userSpaceOnUse">
<stop stop-color="#FD1200"/>
<stop offset="0.0001" stop-color="#FD1200"/>
<stop offset="1" stop-color="#F2006A"/>
</linearGradient>
</defs>
</svg>
